<?xml version="1.0" standalone="no"?>
<!DOCTYPE svg PUBLIC "-//W3C//DTD SVG 20010904//EN"
 "http://www.w3.org/TR/2001/REC-SVG-20010904/DTD/svg10.dtd">
<svg version="1.0" xmlns="http://www.w3.org/2000/svg"
 width="512.000000pt" height="512.000000pt" viewBox="0 0 512.000000 512.000000"
 preserveAspectRatio="xMidYMid meet">

<g transform="translate(0.000000,512.000000) scale(0.100000,-0.100000)"
fill="#000000" stroke="none">
<path d="M2826 4884 c-151 -30 -357 -119 -394 -171 -11 -15 -54 -134 -97 -263
-81 -248 -182 -555 -339 -1035 -52 -159 -135 -414 -185 -567 -50 -152 -91
-283 -91 -291 0 -32 320 -123 533 -153 46 -6 49 -5 86 32 21 22 62 51 92 67
45 22 67 27 130 27 90 0 151 -26 217 -92 l42 -42 123 22 c133 23 348 80 413
109 l42 18 -54 123 c-51 116 -121 294 -197 502 -56 154 -91 411 -106 790 -10
231 -24 298 -85 415 -28 51 -23 75 15 75 23 0 81 -118 106 -216 10 -38 18 -71
20 -73 1 -2 87 24 190 58 104 33 194 61 200 61 18 0 53 40 69 78 17 38 40 50
59 31 21 -21 7 -64 -35 -111 l-38 -43 28 -40 c41 -60 79 -166 92 -254 9 -63 8
-117 -5 -282 -10 -112 -20 -215 -24 -229 -6 -25 -6 -25 13 -5 64 67 179 293
219 430 43 147 57 271 52 435 -6 162 -13 197 -60 267 -37 55 -177 165 -277
217 -82 43 -228 93 -326 112 -95 18 -334 17 -428 -2z"/>
<path d="M1671 2373 c-26 -135 -26 -146 2 -178 16 -20 51 -35 140 -61 65 -19
125 -34 132 -34 8 0 18 20 23 48 27 123 43 223 37 231 -3 5 -20 12 -38 16 -17
4 -84 24 -148 46 -64 21 -119 39 -122 39 -2 0 -14 -48 -26 -107z"/>
<path d="M3297 2440 c-59 -21 -123 -41 -142 -44 -19 -4 -37 -11 -40 -16 -6 -9
10 -108 37 -232 5 -28 15 -48 23 -48 7 0 67 15 132 34 166 49 177 64 149 203
-8 37 -17 85 -20 106 -4 20 -12 36 -19 36 -7 -1 -60 -19 -120 -39z"/>
<path d="M2483 2455 c-165 -51 -216 -268 -93 -393 32 -32 40 -48 40 -76 0 -62
25 -76 130 -76 107 0 130 14 130 78 0 30 7 45 31 68 65 61 90 147 69 235 -10
42 -24 64 -64 104 -71 71 -148 90 -243 60z m2 -231 c23 -9 37 -51 25 -74 -17
-31 -46 -43 -72 -29 -43 23 -50 57 -18 89 21 21 37 24 65 14z m215 -14 c11
-11 20 -29 20 -39 0 -19 -43 -61 -62 -61 -15 0 -58 48 -58 65 0 21 36 55 60
55 11 0 29 -9 40 -20z"/>
<path d="M1550 2413 c-228 -55 -483 -137 -534 -172 -57 -37 -81 -83 -80 -153
1 -100 43 -141 193 -192 322 -109 615 -172 981 -212 196 -22 658 -25 845 -6
389 40 741 115 1065 227 126 44 180 119 161 222 -11 55 -33 87 -79 117 -53 33
-317 117 -519 166 -85 20 -81 26 -59 -88 27 -144 -18 -201 -199 -252 -146 -41
-250 -63 -390 -81 -192 -26 -185 -24 -185 -46 -1 -24 -29 -57 -71 -82 -43 -27
-182 -30 -233 -6 -35 17 -69 56 -80 93 -5 16 -15 22 -36 22 -50 0 -301 39
-390 61 -328 80 -374 120 -343 299 8 45 13 85 11 89 -2 4 -28 2 -58 -6z"/>
<path d="M2049 2224 c-18 -96 -22 -141 -15 -145 13 -8 222 -39 259 -39 l24 0
-29 58 c-29 61 -38 127 -25 198 l8 41 -53 7 c-29 3 -73 9 -98 12 l-45 6 -26
-138z"/>
<path d="M2955 2350 c-16 -4 -47 -8 -68 -9 l-39 -1 8 -42 c14 -85 -2 -174 -42
-235 -14 -22 -13 -23 11 -23 38 0 248 31 261 39 7 4 3 49 -15 144 l-26 137
-30 -1 c-16 -1 -43 -5 -60 -9z"/>
<path d="M1395 1706 c-189 -53 -378 -199 -478 -371 -51 -87 -58 -115 -27 -115
74 0 121 -85 90 -165 -5 -14 -30 -47 -55 -74 -60 -64 -136 -97 -250 -110 -59
-7 -107 -19 -142 -36 -59 -29 -133 -97 -157 -144 l-17 -31 63 0 c106 0 131
-16 88 -55 -44 -40 -74 -185 -54 -261 5 -19 8 -18 42 15 59 55 134 85 225 89
106 6 143 -7 315 -104 203 -116 234 -127 352 -122 82 3 104 8 160 35 36 18 84
46 107 64 39 30 44 31 72 19 17 -7 31 -19 31 -27 0 -11 7 -10 29 7 55 38 105
53 216 60 73 6 130 16 170 30 33 13 62 24 64 26 2 2 -34 43 -80 92 -113 119
-240 307 -303 449 l-19 42 -44 -26 c-61 -36 -212 -45 -294 -18 -48 16 -51 19
-34 29 11 6 36 27 56 47 29 30 39 51 58 130 28 114 77 250 139 382 25 53 43
98 41 100 -9 6 -237 51 -274 53 -22 2 -62 -3 -90 -10z"/>
<path d="M3541 1701 c-59 -15 -65 -19 -87 -61 -13 -25 -23 -60 -24 -79 0 -18
-11 -88 -25 -155 -69 -343 -234 -661 -469 -903 -33 -34 -58 -64 -55 -66 2 -3
31 -14 64 -27 40 -14 97 -24 172 -30 94 -6 122 -12 168 -36 31 -15 58 -31 61
-35 2 -4 15 3 29 17 13 13 30 24 38 24 7 0 40 -20 73 -44 80 -60 161 -86 266
-86 101 1 142 16 330 124 171 97 206 109 311 104 94 -4 168 -33 229 -90 34
-32 37 -33 42 -14 19 72 -6 203 -49 254 -14 17 -25 34 -25 40 0 14 37 22 107
22 l62 0 -21 35 c-58 100 -158 160 -288 175 -119 14 -172 34 -234 91 -59 54
-86 100 -86 149 0 60 47 110 102 110 17 0 19 4 13 28 -10 41 -90 165 -146 226
-91 99 -255 201 -374 231 -73 18 -102 18 -184 -4z"/>
<path d="M3320 1659 c-108 -22 -360 -49 -546 -59 -237 -13 -524 -1 -773 30
-89 12 -164 20 -165 18 -60 -84 -151 -312 -196 -487 -12 -47 -28 -97 -36 -113
l-15 -28 38 0 c103 1 168 38 324 186 65 61 101 87 143 103 62 23 122 27 158
10 20 -9 35 -5 90 25 101 53 189 66 462 66 249 0 289 6 389 57 56 28 127 90
169 147 43 60 41 61 -42 45z"/>
<path d="M3314 1472 c-22 -21 -69 -52 -105 -70 -103 -52 -173 -62 -444 -62
-252 0 -312 -7 -393 -49 -55 -28 -138 -106 -169 -158 -25 -43 -27 -44 -40 -27
-19 25 -10 89 17 126 12 16 20 31 18 34 -9 9 -107 -24 -134 -45 -16 -12 -62
-54 -102 -93 l-73 -71 31 -65 c79 -169 216 -357 362 -498 159 -152 221 -185
317 -169 56 9 120 55 239 169 254 244 432 568 501 911 11 54 19 100 18 101 -1
1 -20 -14 -43 -34z m-662 -696 c29 -19 140 -26 188 -12 21 6 19 2 -15 -29
-148 -135 -382 -135 -530 0 -34 31 -36 35 -15 29 51 -15 159 -7 191 14 41 26
141 25 181 -2z"/>
</g>
</svg>
